<svg width="331" height="331" viewBox="0 0 331 331" fill="none" xmlns="http://www.w3.org/2000/svg">
<circle cx="165.5" cy="165.5" r="165.5" fill="#E0E7FF"/>
<path d="M267.585 79.0289H63.9515C56.9225 79.0289 51.2244 84.727 51.2244 91.756V219.027C51.2244 226.056 56.9225 231.754 63.9515 231.754H267.585C274.614 231.754 280.312 226.056 280.312 219.027V91.756C280.312 84.727 274.614 79.0289 267.585 79.0289Z" fill="#FF776C" stroke="#0F056D" stroke-width="5" stroke-linecap="round" stroke-linejoin="round"/>
<path d="M38.4971 252H293.039Z" fill="#FF776C"/>
<path d="M38.4971 252H293.039" stroke="#0F056D" stroke-width="5" stroke-linecap="round" stroke-linejoin="round"/>
<line x1="70.5" y1="110.5" x2="130.5" y2="110.5" stroke="#E44E48" stroke-width="5" stroke-linecap="round"/>
<line x1="70.5" y1="149.5" x2="130.5" y2="149.5" stroke="#E44E48" stroke-width="5" stroke-linecap="round"/>
<line x1="70.5" y1="188.5" x2="130.5" y2="188.5" stroke="#E44E48" stroke-width="5" stroke-linecap="round"/>
<line x1="70.5" y1="123.5" x2="157.5" y2="123.5" stroke="#E44E48" stroke-width="5" stroke-linecap="round"/>
<line x1="70.5" y1="162.5" x2="157.5" y2="162.5" stroke="#E44E48" stroke-width="5" stroke-linecap="round"/>
<line x1="70.5" y1="201.5" x2="157.5" y2="201.5" stroke="#E44E48" stroke-width="5" stroke-linecap="round"/>
<line x1="149.5" y1="110.5" x2="209.5" y2="110.5" stroke="#FFA6A0" stroke-width="5" stroke-linecap="round"/>
<line x1="149.5" y1="149.5" x2="209.5" y2="149.5" stroke="#FFA6A0" stroke-width="5" stroke-linecap="round"/>
<line x1="149.5" y1="188.5" x2="209.5" y2="188.5" stroke="#FFA6A0" stroke-width="5" stroke-linecap="round"/>
<line x1="171.5" y1="123.5" x2="231.5" y2="123.5" stroke="#FFA6A0" stroke-width="5" stroke-linecap="round"/>
<line x1="171.5" y1="162.5" x2="231.5" y2="162.5" stroke="#FFA6A0" stroke-width="5" stroke-linecap="round"/>
<line x1="171.5" y1="201.5" x2="231.5" y2="201.5" stroke="#FFA6A0" stroke-width="5" stroke-linecap="round"/>
<line x1="120.5" y1="136.5" x2="209.5" y2="136.5" stroke="#E25049" stroke-width="5" stroke-linecap="round"/>
<line x1="120.5" y1="175.5" x2="209.5" y2="175.5" stroke="#E25049" stroke-width="5" stroke-linecap="round"/>
<line x1="120.5" y1="214.5" x2="209.5" y2="214.5" stroke="#E25049" stroke-width="5" stroke-linecap="round"/>
<line x1="228.5" y1="110.5" x2="265.5" y2="110.5" stroke="#E44E48" stroke-width="5" stroke-linecap="round"/>
<line x1="228.5" y1="149.5" x2="265.5" y2="149.5" stroke="#E44E48" stroke-width="5" stroke-linecap="round"/>
<line x1="228.5" y1="188.5" x2="265.5" y2="188.5" stroke="#E44E48" stroke-width="5" stroke-linecap="round"/>
<line x1="228.5" y1="123.5" x2="269.5" y2="123.5" stroke="#FFA6A0" stroke-width="5" stroke-linecap="round"/>
<line x1="228.5" y1="162.5" x2="269.5" y2="162.5" stroke="#FFA6A0" stroke-width="5" stroke-linecap="round"/>
<line x1="228.5" y1="201.5" x2="269.5" y2="201.5" stroke="#FFA6A0" stroke-width="5" stroke-linecap="round"/>
<line x1="228.5" y1="136.5" x2="265.5" y2="136.5" stroke="#FFA6A0" stroke-width="5" stroke-linecap="round"/>
<line x1="228.5" y1="175.5" x2="265.5" y2="175.5" stroke="#FFA6A0" stroke-width="5" stroke-linecap="round"/>
<line x1="228.5" y1="214.5" x2="265.5" y2="214.5" stroke="#FFA6A0" stroke-width="5" stroke-linecap="round"/>
<path d="M139.693 144.389L122.942 158.348L139.693 172.307C140.801 173.231 141.498 174.557 141.628 175.995C141.759 177.432 141.313 178.862 140.39 179.971C139.466 181.08 138.139 181.776 136.702 181.907C135.264 182.037 133.834 181.592 132.725 180.668L110.958 162.529C110.345 162.018 109.852 161.379 109.514 160.656C109.175 159.934 109 159.146 109 158.348C109 157.55 109.175 156.762 109.514 156.04C109.852 155.317 110.345 154.678 110.958 154.167L132.725 136.028C133.274 135.571 133.908 135.226 134.59 135.013C135.273 134.801 135.99 134.724 136.702 134.789C137.413 134.854 138.105 135.058 138.738 135.39C139.371 135.722 139.932 136.176 140.39 136.725C140.847 137.274 141.192 137.908 141.404 138.59C141.617 139.272 141.693 139.99 141.628 140.701C141.564 141.413 141.359 142.105 141.027 142.738C140.695 143.371 140.242 143.932 139.693 144.389V144.389ZM219.506 154.167L197.739 136.028C197.19 135.571 196.556 135.226 195.874 135.013C195.191 134.801 194.474 134.724 193.762 134.789C193.05 134.854 192.358 135.058 191.726 135.39C191.093 135.722 190.532 136.176 190.074 136.725C189.617 137.274 189.272 137.908 189.059 138.59C188.847 139.272 188.771 139.99 188.835 140.701C188.9 141.413 189.104 142.105 189.436 142.738C189.769 143.371 190.222 143.932 190.771 144.389L207.522 158.348L190.771 172.307C190.222 172.764 189.769 173.325 189.436 173.958C189.104 174.591 188.9 175.283 188.835 175.995C188.705 177.432 189.15 178.862 190.074 179.971C190.998 181.08 192.325 181.776 193.762 181.907C194.474 181.971 195.191 181.895 195.874 181.683C196.556 181.47 197.19 181.125 197.739 180.668L219.506 162.529C220.119 162.018 220.612 161.379 220.95 160.656C221.288 159.934 221.464 159.146 221.464 158.348C221.464 157.55 221.288 156.762 220.95 156.04C220.612 155.317 220.119 154.678 219.506 154.167V154.167ZM181.603 113.327C180.247 112.834 178.75 112.9 177.442 113.511C176.135 114.121 175.123 115.226 174.629 116.582L145.606 196.395C145.362 197.067 145.252 197.78 145.283 198.494C145.314 199.208 145.486 199.909 145.788 200.557C146.09 201.205 146.517 201.787 147.044 202.27C147.571 202.753 148.188 203.127 148.86 203.371C149.532 203.616 150.245 203.725 150.959 203.694C151.673 203.662 152.374 203.49 153.022 203.188C153.67 202.885 154.252 202.458 154.734 201.931C155.217 201.403 155.591 200.786 155.835 200.114L184.857 120.301C185.102 119.629 185.211 118.916 185.18 118.202C185.149 117.488 184.977 116.788 184.675 116.14C184.372 115.493 183.946 114.911 183.419 114.428C182.892 113.946 182.275 113.572 181.603 113.327V113.327Z" fill="black"/>
</svg>
